<?xml version="1.0" standalone="no"?>
<!DOCTYPE svg PUBLIC "-//W3C//DTD SVG 20010904//EN"
 "http://www.w3.org/TR/2001/REC-SVG-20010904/DTD/svg10.dtd">
<svg version="1.0" xmlns="http://www.w3.org/2000/svg"
 width="64.000000pt" height="64.000000pt" viewBox="0 0 64.000000 64.000000"
 preserveAspectRatio="xMidYMid meet">

<g transform="translate(0.000000,64.000000) scale(0.100000,-0.100000)"
fill="#000000" stroke="none">
<path d="M4 589 c-10 -17 16 -29 68 -29 l46 0 20 -87 c47 -203 48 -210 28
-232 -26 -28 -14 -69 25 -85 26 -11 28 -14 15 -26 -34 -28 -6 -90 41 -90 24 0
53 30 53 55 0 10 -7 27 -17 37 -15 17 -12 18 90 18 l106 0 -16 -29 c-16 -27
-16 -30 0 -55 18 -27 45 -33 78 -16 24 13 27 78 4 86 -14 6 -13 8 2 20 36 26
-1 33 -177 36 -148 3 -175 5 -175 18 0 13 29 16 184 20 l184 5 40 139 c31 112
36 140 25 147 -7 5 -115 9 -239 9 l-227 0 -6 35 -7 35 -69 0 c-40 0 -72 -5
-76 -11z"/>
</g>
</svg>
