<?xml version="1.0" standalone="no"?>
<!DOCTYPE svg PUBLIC "-//W3C//DTD SVG 20010904//EN"
 "http://www.w3.org/TR/2001/REC-SVG-20010904/DTD/svg10.dtd">
<svg version="1.0" xmlns="http://www.w3.org/2000/svg"
 width="442.000000pt" height="429.000000pt" viewBox="0 0 442.000000 429.000000"
 preserveAspectRatio="xMidYMid meet">

<g transform="translate(0.000000,429.000000) scale(0.100000,-0.100000)"
fill="#000000" stroke="none">
<path d="M240 4005 c-173 -23 -220 -43 -220 -97 0 -44 16 -66 68 -91 80 -41 196 -56 470 -63 245 -7 254 -8 262 -28 4 -12 20 -70 34 -131 33 -142 58 -249 96 -410 17 -71 38 -159 46 -195 8 -36 27 -112 40 -170 14 -58 29 -123 34 -145 6 -22 21 -89 36 -150 14 -60 29 -128 34 -150 79 -391 90 -454 90 -546 0 -88 -15 -129 -78 -206 -77 -96 -96 -142 -96 -233 -1 -63 4 -85 28 -135 39 -78 116 -153 197 -190 160 -75 184 -89 187 -118 3 -21 -7 -37 -47 -77 -78 -78 -96 -119 -96 -220 0 -76 4 -93 32 -150 84 -170 278 -268 428 -216 108 36 232 159 270 267 30 84 8 192 -56 277 -17 22 -44 58 -60 79 -69 91 -48 93 722 100 438 4 628 3 633 -5 3 -6 -32 -77 -78 -159 -46 -81 -89 -167 -96 -190 -10 -38 -8 -48 18 -105 87 -188 227 -288 387 -275 74 6 177 40 227 75 46 33 93 121 109 207 14 75 6 218 -15 267 -17 39 -78 95 -113 104 -41 11 -40 44 3 82 119 105 125 113 122 140 -11 94 -310 120 -1658 147 -499 10 -789 37 -836 76 -33 27 -11 72 47 96 41 18 270 41 519 53 215 10 383 15 1470 41 261 6 479 15 483 19 8 7 170 541 212 695 7 28 20 70 29 95 13 40 75 256 96 335 5 17 16 57 25 90 118 427 150 634 106 682 -49 52 -390 65 -1925 72 -1140 5 -1300 8 -1307 21 -4 8 -13 49 -20 90 -6 41 -25 137 -40 214 -16 76 -29 140 -29 142 0 10 -704 0 -790 -11z"/>
</g>
</svg>
